<?xml version="1.0" encoding="ISO8859-1"?>
<svg xmlns="http://www.w3.org/2000/svg" xmlns:xlink="http://www.w3.org/1999/xlink" width="288px" height="252px" viewBox="0 0 288 252" version="1.1" id="Fig:dens">
  <metadata xmlns:gridsvg="http://www.stat.auckland.ac.nz/~paul/R/gridSVG/">
    <gridsvg:generator name="gridSVG" version="1.7-1" time="2020-04-28 15:54:58"/>
    <gridsvg:argument name="name" value="arrayQualityMetrics report for rawData/dens.svg"/>
    <gridsvg:argument name="exportCoords" value="none"/>
    <gridsvg:argument name="exportMappings" value="none"/>
    <gridsvg:argument name="exportJS" value="none"/>
    <gridsvg:argument name="res" value="72"/>
    <gridsvg:argument name="prefix" value="Fig:dens"/>
    <gridsvg:argument name="addClasses" value="FALSE"/>
    <gridsvg:argument name="indent" value="TRUE"/>
    <gridsvg:argument name="htmlWrapper" value="FALSE"/>
    <gridsvg:argument name="usePaths" value="none"/>
    <gridsvg:argument name="uniqueNames" value="TRUE"/>
    <gridsvg:separator name="id.sep" value="."/>
    <gridsvg:separator name="gPath.sep" value="::"/>
    <gridsvg:separator name="vpPath.sep" value="::"/>
  </metadata>
  <g transform="translate(0, 252) scale(1, -1)">
    <g id="Fig:densgridSVG" fill="none" stroke="rgb(0,0,0)" stroke-dasharray="none" stroke-width="0.75" font-size="12" font-family="Helvetica, Arial, FreeSans, Liberation Sans, Nimbus Sans L, sans-serif" opacity="1" stroke-linecap="round" stroke-linejoin="round" stroke-miterlimit="10" stroke-opacity="1" fill-opacity="0" font-weight="normal" font-style="normal">
      <g id="Fig:densplot_01.background.1">
        <rect id="Fig:densplot_01.background.1.1" x="0" y="0" width="288" height="252" transform="" fill="none" stroke="none" stroke-opacity="0" fill-opacity="0"/>
      </g>
      <g id="Fig:densplot_01.toplevel.vp.1" font-size="12">
        <g id="Fig:densplot_01.ylab.vp.1">
          <g id="Fig:densplot_01.ylab.1">
            <g id="Fig:densplot_01.ylab.1.1" transform="translate(10.31, 138.09)" stroke-width="0.1">
              <g id="Fig:densplot_01.ylab.1.1.scale" transform="scale(1, -1)">
                <text x="0" y="0" id="Fig:densplot_01.ylab.1.1.text" transform="rotate(-90)" text-anchor="middle" opacity="1" stroke="rgb(0,0,0)" fill="rgb(0,0,0)" stroke-opacity="1" fill-opacity="1" font-size="12" font-weight="normal" font-style="normal">
                  <tspan id="Fig:densplot_01.ylab.1.1.tspan.1" dy="4.31" x="0">Density</tspan>
                </text>
              </g>
            </g>
          </g>
        </g>
        <g id="Fig:densplot_01.figure.vp.1"/>
        <defs>
          <clipPath id="Fig:densplot_01.panel.1.1.vp.1.clipPath">
            <rect x="44.8" y="42.19" width="231.2" height="191.81" fill="none" stroke="none"/>
          </clipPath>
        </defs>
        <g id="Fig:densplot_01.panel.1.1.vp.1" clip-path="url(#Fig:densplot_01.panel.1.1.vp.1.clipPath)"/>
        <g id="Fig:densplot_01.strip.1.1.off.vp.1"/>
        <g id="Fig:densplot_01.strip.left.1.1.off.vp.1">
          <g id="Fig:densplot_01.ticks.left.panel.1.1.1">
            <polyline id="Fig:densplot_01.ticks.left.panel.1.1.1.1" points="44.8,53.97 39.13,53.97" stroke="rgb(0,0,0)" opacity="1" stroke-dasharray="none" stroke-width="0.75" stroke-opacity="1" fill="none"/>
            <polyline id="Fig:densplot_01.ticks.left.panel.1.1.1.2" points="44.8,89.69 39.13,89.69" stroke="rgb(0,0,0)" opacity="1" stroke-dasharray="none" stroke-width="0.75" stroke-opacity="1" fill="none"/>
            <polyline id="Fig:densplot_01.ticks.left.panel.1.1.1.3" points="44.8,125.42 39.13,125.42" stroke="rgb(0,0,0)" opacity="1" stroke-dasharray="none" stroke-width="0.75" stroke-opacity="1" fill="none"/>
            <polyline id="Fig:densplot_01.ticks.left.panel.1.1.1.4" points="44.8,161.14 39.13,161.14" stroke="rgb(0,0,0)" opacity="1" stroke-dasharray="none" stroke-width="0.75" stroke-opacity="1" fill="none"/>
            <polyline id="Fig:densplot_01.ticks.left.panel.1.1.1.5" points="44.8,196.87 39.13,196.87" stroke="rgb(0,0,0)" opacity="1" stroke-dasharray="none" stroke-width="0.75" stroke-opacity="1" fill="none"/>
            <polyline id="Fig:densplot_01.ticks.left.panel.1.1.1.6" points="44.8,232.6 39.13,232.6" stroke="rgb(0,0,0)" opacity="1" stroke-dasharray="none" stroke-width="0.75" stroke-opacity="1" fill="none"/>
          </g>
          <g id="Fig:densplot_01.ticklabels.left.panel.1.1.1">
            <g id="Fig:densplot_01.ticklabels.left.panel.1.1.1.1" transform="translate(33.47, 53.97)" stroke-width="0.1">
              <g id="Fig:densplot_01.ticklabels.left.panel.1.1.1.1.scale" transform="scale(1, -1)">
                <text x="0" y="0" id="Fig:densplot_01.ticklabels.left.panel.1.1.1.1.text" transform="rotate(-90)" text-anchor="middle" stroke="rgb(0,0,0)" opacity="1" fill="rgb(0,0,0)" stroke-opacity="1" fill-opacity="1" font-size="9.6" font-weight="normal" font-style="normal">
                  <tspan id="Fig:densplot_01.ticklabels.left.panel.1.1.1.1.tspan.1" dy="0" x="0">0.000</tspan>
                </text>
              </g>
            </g>
            <g id="Fig:densplot_01.ticklabels.left.panel.1.1.1.2" transform="translate(33.47, 89.69)" stroke-width="0.1">
              <g id="Fig:densplot_01.ticklabels.left.panel.1.1.1.2.scale" transform="scale(1, -1)">
                <text x="0" y="0" id="Fig:densplot_01.ticklabels.left.panel.1.1.1.2.text" transform="rotate(-90)" text-anchor="middle" stroke="rgb(0,0,0)" opacity="1" fill="rgb(0,0,0)" stroke-opacity="1" fill-opacity="1" font-size="9.6" font-weight="normal" font-style="normal">
                  <tspan id="Fig:densplot_01.ticklabels.left.panel.1.1.1.2.tspan.1" dy="0" x="0">0.005</tspan>
                </text>
              </g>
            </g>
            <g id="Fig:densplot_01.ticklabels.left.panel.1.1.1.3" transform="translate(33.47, 125.42)" stroke-width="0.1">
              <g id="Fig:densplot_01.ticklabels.left.panel.1.1.1.3.scale" transform="scale(1, -1)">
                <text x="0" y="0" id="Fig:densplot_01.ticklabels.left.panel.1.1.1.3.text" transform="rotate(-90)" text-anchor="middle" stroke="rgb(0,0,0)" opacity="1" fill="rgb(0,0,0)" stroke-opacity="1" fill-opacity="1" font-size="9.6" font-weight="normal" font-style="normal">
                  <tspan id="Fig:densplot_01.ticklabels.left.panel.1.1.1.3.tspan.1" dy="0" x="0">0.010</tspan>
                </text>
              </g>
            </g>
            <g id="Fig:densplot_01.ticklabels.left.panel.1.1.1.4" transform="translate(33.47, 161.14)" stroke-width="0.1">
              <g id="Fig:densplot_01.ticklabels.left.panel.1.1.1.4.scale" transform="scale(1, -1)">
                <text x="0" y="0" id="Fig:densplot_01.ticklabels.left.panel.1.1.1.4.text" transform="rotate(-90)" text-anchor="middle" stroke="rgb(0,0,0)" opacity="1" fill="rgb(0,0,0)" stroke-opacity="1" fill-opacity="1" font-size="9.6" font-weight="normal" font-style="normal">
                  <tspan id="Fig:densplot_01.ticklabels.left.panel.1.1.1.4.tspan.1" dy="0" x="0">0.015</tspan>
                </text>
              </g>
            </g>
            <g id="Fig:densplot_01.ticklabels.left.panel.1.1.1.5" transform="translate(33.47, 196.87)" stroke-width="0.1">
              <g id="Fig:densplot_01.ticklabels.left.panel.1.1.1.5.scale" transform="scale(1, -1)">
                <text x="0" y="0" id="Fig:densplot_01.ticklabels.left.panel.1.1.1.5.text" transform="rotate(-90)" text-anchor="middle" stroke="rgb(0,0,0)" opacity="1" fill="rgb(0,0,0)" stroke-opacity="1" fill-opacity="1" font-size="9.6" font-weight="normal" font-style="normal">
                  <tspan id="Fig:densplot_01.ticklabels.left.panel.1.1.1.5.tspan.1" dy="0" x="0">0.020</tspan>
                </text>
              </g>
            </g>
          </g>
        </g>
        <g id="Fig:densplot_01.panel.1.1.off.vp.1">
          <g id="Fig:densplot_01.ticks.bottom.panel.1.1.1">
            <polyline id="Fig:densplot_01.ticks.bottom.panel.1.1.1.1" points="59.24,42.19 59.24,36.52" stroke="rgb(0,0,0)" opacity="1" stroke-dasharray="none" stroke-width="0.75" stroke-opacity="1" fill="none"/>
            <polyline id="Fig:densplot_01.ticks.bottom.panel.1.1.1.2" points="117.26,42.19 117.26,36.52" stroke="rgb(0,0,0)" opacity="1" stroke-dasharray="none" stroke-width="0.75" stroke-opacity="1" fill="none"/>
            <polyline id="Fig:densplot_01.ticks.bottom.panel.1.1.1.3" points="175.29,42.19 175.29,36.52" stroke="rgb(0,0,0)" opacity="1" stroke-dasharray="none" stroke-width="0.75" stroke-opacity="1" fill="none"/>
            <polyline id="Fig:densplot_01.ticks.bottom.panel.1.1.1.4" points="233.31,42.19 233.31,36.52" stroke="rgb(0,0,0)" opacity="1" stroke-dasharray="none" stroke-width="0.75" stroke-opacity="1" fill="none"/>
          </g>
          <g id="Fig:densplot_01.ticklabels.bottom.panel.1.1.1">
            <g id="Fig:densplot_01.ticklabels.bottom.panel.1.1.1.1" transform="translate(59.24, 30.85)" stroke-width="0.1">
              <g id="Fig:densplot_01.ticklabels.bottom.panel.1.1.1.1.scale" transform="scale(1, -1)">
                <text x="0" y="0" id="Fig:densplot_01.ticklabels.bottom.panel.1.1.1.1.text" text-anchor="middle" stroke="rgb(0,0,0)" opacity="1" fill="rgb(0,0,0)" stroke-opacity="1" fill-opacity="1" font-size="9.6" font-weight="normal" font-style="normal">
                  <tspan id="Fig:densplot_01.ticklabels.bottom.panel.1.1.1.1.tspan.1" dy="7.18" x="0">0</tspan>
                </text>
              </g>
            </g>
            <g id="Fig:densplot_01.ticklabels.bottom.panel.1.1.1.2" transform="translate(117.26, 30.85)" stroke-width="0.1">
              <g id="Fig:densplot_01.ticklabels.bottom.panel.1.1.1.2.scale" transform="scale(1, -1)">
                <text x="0" y="0" id="Fig:densplot_01.ticklabels.bottom.panel.1.1.1.2.text" text-anchor="middle" stroke="rgb(0,0,0)" opacity="1" fill="rgb(0,0,0)" stroke-opacity="1" fill-opacity="1" font-size="9.6" font-weight="normal" font-style="normal">
                  <tspan id="Fig:densplot_01.ticklabels.bottom.panel.1.1.1.2.tspan.1" dy="7.18" x="0">1000</tspan>
                </text>
              </g>
            </g>
            <g id="Fig:densplot_01.ticklabels.bottom.panel.1.1.1.3" transform="translate(175.29, 30.85)" stroke-width="0.1">
              <g id="Fig:densplot_01.ticklabels.bottom.panel.1.1.1.3.scale" transform="scale(1, -1)">
                <text x="0" y="0" id="Fig:densplot_01.ticklabels.bottom.panel.1.1.1.3.text" text-anchor="middle" stroke="rgb(0,0,0)" opacity="1" fill="rgb(0,0,0)" stroke-opacity="1" fill-opacity="1" font-size="9.6" font-weight="normal" font-style="normal">
                  <tspan id="Fig:densplot_01.ticklabels.bottom.panel.1.1.1.3.tspan.1" dy="7.18" x="0">2000</tspan>
                </text>
              </g>
            </g>
            <g id="Fig:densplot_01.ticklabels.bottom.panel.1.1.1.4" transform="translate(233.31, 30.85)" stroke-width="0.1">
              <g id="Fig:densplot_01.ticklabels.bottom.panel.1.1.1.4.scale" transform="scale(1, -1)">
                <text x="0" y="0" id="Fig:densplot_01.ticklabels.bottom.panel.1.1.1.4.text" text-anchor="middle" stroke="rgb(0,0,0)" opacity="1" fill="rgb(0,0,0)" stroke-opacity="1" fill-opacity="1" font-size="9.6" font-weight="normal" font-style="normal">
                  <tspan id="Fig:densplot_01.ticklabels.bottom.panel.1.1.1.4.tspan.1" dy="7.18" x="0">3000</tspan>
                </text>
              </g>
            </g>
          </g>
        </g>
        <defs>
          <clipPath id="Fig:densplot_01.panel.1.1.vp.2.clipPath">
            <rect x="44.8" y="42.19" width="231.2" height="191.81" fill="none" stroke="none"/>
          </clipPath>
        </defs>
        <g id="Fig:densplot_01.panel.1.1.vp.2" clip-path="url(#Fig:densplot_01.panel.1.1.vp.2.clipPath)">
          <g id="Fig:densplot_01.xyplot.lines.group.1.panel.1.1.1">
            <polyline id="Fig:densplot_01.xyplot.lines.group.1.panel.1.1.1.1" points="59.44,54 59.83,54.67 60.23,60.39 60.62,82.57 61.02,120.41 61.41,145.46 61.81,142.51 62.2,125.81 62.6,110.58 62.99,100.09 63.39,92.73 63.78,87.31 64.18,83.17 64.58,79.86 64.97,77.13 65.37,74.85 65.76,72.92 66.16,71.22 66.55,69.68 66.95,68.3 67.34,67.12 67.74,66.1 68.13,65.21 68.53,64.39 68.92,63.64 69.32,62.97 69.71,62.41 70.11,61.92 70.5,61.47 70.9,61.04 71.29,60.67 71.69,60.33 72.08,60 72.48,59.68 72.87,59.41 73.27,59.2 73.66,59.02 74.06,58.83 74.45,58.59 74.85,58.35 75.24,58.16 75.64,57.99 76.03,57.83 76.43,57.67 76.83,57.52 77.22,57.38 77.62,57.27 78.01,57.17 78.41,57.07 78.8,56.97 79.2,56.88 79.59,56.79 79.99,56.72 80.38,56.66 80.78,56.61 81.17,56.53 81.57,56.45 81.96,56.37 82.36,56.29 82.75,56.21 83.15,56.15 83.54,56.1 83.94,56.04 84.33,55.99 84.73,55.97 85.12,55.95 85.52,55.9 85.91,55.84 86.31,55.77 86.7,55.73 87.1,55.7 87.49,55.66 87.89,55.62 88.28,55.58 88.68,55.54 89.08,55.5 89.47,55.47 89.87,55.43 90.26,55.39 90.66,55.35 91.05,55.34 91.45,55.32 91.84,55.29 92.24,55.25 92.63,55.23 93.03,55.22 93.42,55.2 93.82,55.17 94.21,55.14 94.61,55.11 95,55.07 95.4,55.05 95.79,55.03 96.19,55.02 96.58,55.01 96.98,54.99 97.37,54.95 97.77,54.92 98.16,54.9 98.56,54.89 98.95,54.88 99.35,54.87 99.74,54.87 100.14,54.86 100.53,54.84 100.93,54.82 101.33,54.81 101.72,54.8 102.12,54.78 102.51,54.76 102.91,54.74 103.3,54.72 103.7,54.71 104.09,54.7 104.49,54.7 104.88,54.7 105.28,54.69 105.67,54.69 106.07,54.68 106.46,54.66 106.86,54.64 107.25,54.64 107.65,54.65 108.04,54.64 108.44,54.62 108.83,54.61 109.23,54.61 109.62,54.6 110.02,54.58 110.41,54.57 110.81,54.57 111.2,54.56 111.6,54.56 111.99,54.55 112.39,54.53 112.78,54.52 113.18,54.5 113.58,54.49 113.97,54.5 114.37,54.51 114.76,54.5 115.16,54.49 115.55,54.48 115.95,54.47 116.34,54.45 116.74,54.44 117.13,54.44 117.53,54.45 117.92,54.45 118.32,54.44 118.71,54.43 119.11,54.42 119.5,54.41 119.9,54.42 120.29,54.43 120.69,54.42 121.08,54.41 121.48,54.4 121.87,54.39 122.27,54.38 122.66,54.38 123.06,54.37 123.45,54.35 123.85,54.34 124.24,54.33 124.64,54.33 125.03,54.32 125.43,54.32 125.83,54.32 126.22,54.33 126.62,54.33 127.01,54.34 127.41,54.33 127.8,54.32 128.2,54.32 128.59,54.31 128.99,54.31 129.38,54.3 129.78,54.3 130.17,54.3 130.57,54.3 130.96,54.29 131.36,54.29 131.75,54.29 132.15,54.29 132.54,54.29 132.94,54.27 133.33,54.26 133.73,54.26 134.12,54.27 134.52,54.27 134.91,54.27 135.31,54.27 135.7,54.27 136.1,54.27 136.49,54.26 136.89,54.26 137.28,54.26 137.68,54.25 138.08,54.24 138.47,54.23 138.87,54.23 139.26,54.24 139.66,54.24 140.05,54.24 140.45,54.23 140.84,54.21 141.24,54.2 141.63,54.2 142.03,54.2 142.42,54.21 142.82,54.2 143.21,54.2 143.61,54.2 144,54.2 144.4,54.2 144.79,54.2 145.19,54.2 145.58,54.2 145.98,54.19 146.37,54.19 146.77,54.18 147.16,54.18 147.56,54.18 147.95,54.18 148.35,54.18 148.74,54.18 149.14,54.18 149.53,54.18 149.93,54.18 150.33,54.17 150.72,54.16 151.12,54.17 151.51,54.17 151.91,54.17 152.3,54.16 152.7,54.16 153.09,54.16 153.49,54.17 153.88,54.17 154.28,54.16 154.67,54.16 155.07,54.17 155.46,54.16 155.86,54.16 156.25,54.16 156.65,54.16 157.04,54.16 157.44,54.15 157.83,54.14 158.23,54.14 158.62,54.14 159.02,54.14 159.41,54.14 159.81,54.15 160.2,54.14 160.6,54.14 160.99,54.14 161.39,54.13 161.79,54.12 162.18,54.12 162.58,54.13 162.97,54.13 163.37,54.12 163.76,54.11 164.16,54.12 164.55,54.12 164.95,54.13 165.34,54.13 165.74,54.13 166.13,54.13 166.53,54.13 166.92,54.12 167.32,54.11 167.71,54.11 168.11,54.11 168.5,54.11 168.9,54.11 169.29,54.11 169.69,54.11 170.08,54.11 170.48,54.11 170.87,54.11 171.27,54.11 171.66,54.11 172.06,54.11 172.45,54.11 172.85,54.1 173.24,54.1 173.64,54.09 174.04,54.09 174.43,54.09 174.83,54.1 175.22,54.1 175.62,54.1 176.01,54.1 176.41,54.1 176.8,54.09 177.2,54.1 177.59,54.1 177.99,54.1 178.38,54.09 178.78,54.08 179.17,54.08 179.57,54.08 179.96,54.09 180.36,54.09 180.75,54.09 181.15,54.09 181.54,54.09 181.94,54.09 182.33,54.08 182.73,54.08 183.12,54.08 183.52,54.08 183.91,54.08 184.31,54.08 184.7,54.08 185.1,54.08 185.49,54.08 185.89,54.08 186.29,54.08 186.68,54.08 187.08,54.08 187.47,54.08 187.87,54.08 188.26,54.08 188.66,54.08 189.05,54.08 189.45,54.08 189.84,54.07 190.24,54.07 190.63,54.07 191.03,54.07 191.42,54.06 191.82,54.06 192.21,54.06 192.61,54.06 193,54.06 193.4,54.07 193.79,54.07 194.19,54.07 194.58,54.07 194.98,54.06 195.37,54.06 195.77,54.06 196.16,54.06 196.56,54.06 196.95,54.06 197.35,54.06 197.74,54.06 198.14,54.06 198.54,54.06 198.93,54.06 199.33,54.05 199.72,54.05 200.12,54.05 200.51,54.05 200.91,54.05 201.3,54.05 201.7,54.06 202.09,54.06 202.49,54.05 202.88,54.05 203.28,54.05 203.67,54.05 204.07,54.05 204.46,54.05 204.86,54.05 205.25,54.05 205.65,54.05 206.04,54.05 206.44,54.05 206.83,54.04 207.23,54.04 207.62,54.04 208.02,54.05 208.41,54.05 208.81,54.05 209.2,54.05 209.6,54.05 209.99,54.05 210.39,54.05 210.79,54.05 211.18,54.04 211.58,54.04 211.97,54.04 212.37,54.04 212.76,54.04 213.16,54.04 213.55,54.04 213.95,54.04 214.34,54.04 214.74,54.05 215.13,54.04 215.53,54.04 215.92,54.04 216.32,54.04 216.71,54.04 217.11,54.04 217.5,54.04 217.9,54.04 218.29,54.04 218.69,54.04 219.08,54.04 219.48,54.04 219.87,54.04 220.27,54.03 220.66,54.04 221.06,54.04 221.45,54.04 221.85,54.04 222.24,54.04 222.64,54.03 223.04,54.03 223.43,54.02 223.83,54.02 224.22,54.03 224.62,54.03 225.01,54.03 225.41,54.03 225.8,54.03 226.2,54.03 226.59,54.03 226.99,54.04 227.38,54.04 227.78,54.03 228.17,54.03 228.57,54.03 228.96,54.03 229.36,54.03 229.75,54.03 230.15,54.03 230.54,54.03 230.94,54.03 231.33,54.03 231.73,54.03 232.12,54.03 232.52,54.03 232.91,54.03 233.31,54.03 233.7,54.02 234.1,54.02 234.49,54.03 234.89,54.03 235.29,54.02 235.68,54.03 236.08,54.03 236.47,54.03 236.87,54.03 237.26,54.02 237.66,54.03 238.05,54.03 238.45,54.03 238.84,54.02 239.24,54.02 239.63,54.02 240.03,54.02 240.42,54.02 240.82,54.02 241.21,54.02 241.61,54.02 242,54.02 242.4,54.02 242.79,54.02 243.19,54.02 243.58,54.02 243.98,54.02 244.37,54.02 244.77,54.02 245.16,54.02 245.56,54.02 245.95,54.02 246.35,54.03 246.74,54.03 247.14,54.02 247.54,54.02 247.93,54.02 248.33,54.02 248.72,54.02 249.12,54.02 249.51,54.02 249.91,54.02 250.3,54.01 250.7,54.01 251.09,54.02 251.49,54.02 251.88,54.02 252.28,54.02 252.67,54.01 253.07,54.01 253.46,54.01 253.86,54.01 254.25,54.01 254.65,54.01 255.04,54.01 255.44,54.01 255.83,54.01 256.23,54.01 256.62,54.01 257.02,54.01 257.41,54.01 257.81,54.01 258.2,54.01 258.6,54.01 258.99,54.01 259.39,54.01 259.79,54 260.18,53.99 260.58,53.98 260.97,53.97 261.37,53.97" stroke-dasharray="none" stroke="rgb(31,120,180)" stroke-width="0.75" opacity="1" stroke-opacity="1" fill="none"/>
          </g>
          <g id="Fig:densplot_01.xyplot.lines.group.2.panel.1.1.1">
            <polyline id="Fig:densplot_01.xyplot.lines.group.2.panel.1.1.1.1" points="59.76,53.99 60.15,59.89 60.55,119.19 60.94,222.22 61.33,186.43 61.73,146.07 62.12,123.39 62.51,108.84 62.91,99.01 63.3,91.35 63.69,85.73 64.09,81.26 64.48,77.69 64.87,74.6 65.27,72.09 65.66,70.12 66.05,68.46 66.45,66.94 66.84,65.68 67.24,64.66 67.63,63.65 68.02,62.85 68.42,62.1 68.81,61.4 69.2,60.87 69.6,60.42 69.99,60 70.38,59.54 70.78,59.18 71.17,58.86 71.56,58.49 71.96,58.26 72.35,58.08 72.74,57.91 73.14,57.7 73.53,57.48 73.92,57.3 74.32,57.13 74.71,57 75.1,56.86 75.5,56.71 75.89,56.53 76.28,56.39 76.68,56.3 77.07,56.23 77.46,56.18 77.86,56.12 78.25,56.01 78.65,55.9 79.04,55.81 79.43,55.75 79.83,55.69 80.22,55.63 80.61,55.59 81.01,55.55 81.4,55.49 81.79,55.42 82.19,55.34 82.58,55.3 82.97,55.27 83.37,55.24 83.76,55.19 84.15,55.14 84.55,55.1 84.94,55.07 85.33,55.05 85.73,55.05 86.12,55.03 86.51,55.01 86.91,54.99 87.3,54.95 87.69,54.9 88.09,54.87 88.48,54.85 88.87,54.85 89.27,54.83 89.66,54.8 90.06,54.76 90.45,54.72 90.84,54.71 91.24,54.69 91.63,54.68 92.02,54.67 92.42,54.66 92.81,54.65 93.2,54.63 93.6,54.6 93.99,54.58 94.38,54.56 94.78,54.56 95.17,54.54 95.56,54.53 95.96,54.53 96.35,54.52 96.74,54.53 97.14,54.52 97.53,54.48 97.92,54.47 98.32,54.46 98.71,54.43 99.1,54.41 99.5,54.41 99.89,54.42 100.28,54.43 100.68,54.42 101.07,54.39 101.47,54.38 101.86,54.4 102.25,54.4 102.65,54.38 103.04,54.36 103.43,54.36 103.83,54.37 104.22,54.35 104.61,54.35 105.01,54.34 105.4,54.33 105.79,54.31 106.19,54.29 106.58,54.3 106.97,54.32 107.37,54.31 107.76,54.3 108.15,54.29 108.55,54.28 108.94,54.29 109.33,54.29 109.73,54.26 110.12,54.25 110.51,54.24 110.91,54.26 111.3,54.26 111.69,54.26 112.09,54.25 112.48,54.23 112.88,54.23 113.27,54.24 113.66,54.24 114.06,54.22 114.45,54.23 114.84,54.22 115.24,54.2 115.63,54.2 116.02,54.2 116.42,54.2 116.81,54.19 117.2,54.18 117.6,54.18 117.99,54.18 118.38,54.18 118.78,54.19 119.17,54.18 119.56,54.17 119.96,54.18 120.35,54.18 120.74,54.17 121.14,54.16 121.53,54.15 121.92,54.15 122.32,54.16 122.71,54.15 123.1,54.14 123.5,54.15 123.89,54.14 124.29,54.14 124.68,54.16 125.07,54.15 125.47,54.15 125.86,54.15 126.25,54.16 126.65,54.14 127.04,54.13 127.43,54.14 127.83,54.14 128.22,54.13 128.61,54.12 129.01,54.12 129.4,54.13 129.79,54.14 130.19,54.13 130.58,54.13 130.97,54.13 131.37,54.13 131.76,54.12 132.15,54.11 132.55,54.1 132.94,54.11 133.33,54.11 133.73,54.11 134.12,54.11 134.51,54.11 134.91,54.12 135.3,54.11 135.7,54.11 136.09,54.11 136.48,54.11 136.88,54.1 137.27,54.09 137.66,54.09 138.06,54.09 138.45,54.1 138.84,54.09 139.24,54.09 139.63,54.09 140.02,54.09 140.42,54.09 140.81,54.09 141.2,54.08 141.6,54.08 141.99,54.07 142.38,54.07 142.78,54.07 143.17,54.08 143.56,54.09 143.96,54.08 144.35,54.07 144.74,54.07 145.14,54.07 145.53,54.07 145.92,54.07 146.32,54.06 146.71,54.07 147.11,54.08 147.5,54.07 147.89,54.06 148.29,54.05 148.68,54.05 149.07,54.06 149.47,54.06 149.86,54.07 150.25,54.06 150.65,54.06 151.04,54.07 151.43,54.06 151.83,54.06 152.22,54.06 152.61,54.06 153.01,54.06 153.4,54.05 153.79,54.06 154.19,54.06 154.58,54.05 154.97,54.05 155.37,54.05 155.76,54.05 156.15,54.05 156.55,54.05 156.94,54.05 157.34,54.05 157.73,54.04 158.12,54.04 158.52,54.04 158.91,54.03 159.3,54.03 159.7,54.04 160.09,54.04 160.48,54.04 160.88,54.03 161.27,54.03 161.66,54.03 162.06,54.04 162.45,54.04 162.84,54.04 163.24,54.04 163.63,54.04 164.02,54.04 164.42,54.04 164.81,54.04 165.2,54.04 165.6,54.03 165.99,54.03 166.38,54.04 166.78,54.03 167.17,54.02 167.56,54.02 167.96,54.03 168.35,54.04 168.75,54.03 169.14,54.03 169.53,54.03 169.93,54.04 170.32,54.03 170.71,54.02 171.11,54.02 171.5,54.03 171.89,54.03 172.29,54.04 172.68,54.03 173.07,54.03 173.47,54.02 173.86,54.03 174.25,54.03 174.65,54.03 175.04,54.02 175.43,54.02 175.83,54.02 176.22,54.03 176.61,54.03 177.01,54.02 177.4,54.02 177.79,54.02 178.19,54.02 178.58,54.01 178.97,54.02 179.37,54.03 179.76,54.03 180.16,54.02 180.55,54.02 180.94,54.02 181.34,54.02 181.73,54.02 182.12,54.02 182.52,54.02 182.91,54.01 183.3,54.01 183.7,54.02 184.09,54.02 184.48,54.02 184.88,54.02 185.27,54.01 185.66,54.01 186.06,54.01 186.45,54.01 186.84,54.01 187.24,54.01 187.63,54.02 188.02,54.02 188.42,54.01 188.81,54.01 189.2,54.01 189.6,54.01 189.99,54.01 190.38,54.01 190.78,54.01 191.17,54.01 191.57,54 191.96,54 192.35,54.01 192.75,54.01 193.14,54.01 193.53,54.01 193.93,54.01 194.32,54.01 194.71,54.01 195.11,54 195.5,54 195.89,54 196.29,54 196.68,54.01 197.07,54.01 197.47,54.01 197.86,54.01 198.25,54 198.65,54 199.04,54 199.43,54 199.83,54.01 200.22,54.01 200.61,54 201.01,54 201.4,54 201.79,54 202.19,54 202.58,54 202.98,54.01 203.37,54.01 203.76,54 204.16,54 204.55,54.01 204.94,54 205.34,54 205.73,54 206.12,54 206.52,54 206.91,54 207.3,53.99 207.7,54 208.09,54 208.48,54 208.88,54 209.27,54 209.66,53.99 210.06,54 210.45,54 210.84,54 211.24,54 211.63,54 212.02,54 212.42,54 212.81,54 213.2,53.99 213.6,53.99 213.99,53.99 214.39,53.99 214.78,54 215.17,54 215.57,54.01 215.96,54.01 216.35,54 216.75,54 217.14,53.99 217.53,53.99 217.93,54 218.32,54 218.71,54 219.11,54 219.5,54 219.89,54 220.29,54 220.68,54 221.07,54 221.47,53.99 221.86,53.99 222.25,53.99 222.65,53.99 223.04,54 223.43,54 223.83,54 224.22,54 224.61,54 225.01,54 225.4,53.99 225.8,53.99 226.19,54 226.58,54 226.98,54 227.37,54 227.76,53.99 228.16,54 228.55,54 228.94,54 229.34,53.99 229.73,53.99 230.12,53.99 230.52,53.99 230.91,53.99 231.3,53.99 231.7,53.99 232.09,53.99 232.48,53.99 232.88,53.99 233.27,53.99 233.66,53.99 234.06,54 234.45,53.99 234.84,53.99 235.24,53.99 235.63,53.99 236.02,53.99 236.42,53.99 236.81,53.99 237.21,53.99 237.6,53.99 237.99,53.99 238.39,53.99 238.78,53.99 239.17,53.99 239.57,53.99 239.96,54 240.35,54 240.75,53.99 241.14,53.99 241.53,53.99 241.93,53.99 242.32,53.99 242.71,53.99 243.11,53.99 243.5,53.99 243.89,53.99 244.29,53.99 244.68,53.99 245.07,53.99 245.47,53.99 245.86,53.99 246.25,53.99 246.65,53.99 247.04,53.99 247.43,53.99 247.83,53.99 248.22,53.99 248.62,53.99 249.01,53.99 249.4,53.99 249.8,53.98 250.19,53.98 250.58,53.99 250.98,53.99 251.37,53.99 251.76,53.99 252.16,53.99 252.55,53.98 252.94,53.98 253.34,53.99 253.73,53.99 254.12,53.99 254.52,53.99 254.91,53.99 255.3,53.99 255.7,53.99 256.09,53.99 256.48,53.99 256.88,53.99 257.27,53.99 257.66,53.99 258.06,53.99 258.45,53.99 258.84,53.99 259.24,53.99 259.63,53.99 260.03,53.99 260.42,53.97 260.81,53.97" stroke-dasharray="none" stroke="rgb(31,120,180)" stroke-width="0.75" opacity="1" stroke-opacity="1" fill="none"/>
          </g>
          <g id="Fig:densplot_01.xyplot.lines.group.3.panel.1.1.1">
            <polyline id="Fig:densplot_01.xyplot.lines.group.3.panel.1.1.1.1" points="59,54.03 59.4,54.47 59.79,56.84 60.19,65.05 60.59,83.24 60.98,107.4 61.38,123.75 61.78,123.93 62.18,113.96 62.57,103.28 62.97,95.38 63.37,89.73 63.76,85.48 64.16,82.12 64.56,79.37 64.95,77.07 65.35,75.13 65.75,73.43 66.14,71.87 66.54,70.44 66.94,69.17 67.33,68.05 67.73,67.08 68.13,66.22 68.53,65.43 68.92,64.69 69.32,64.02 69.72,63.43 70.11,62.9 70.51,62.43 70.91,62 71.3,61.61 71.7,61.25 72.1,60.91 72.49,60.6 72.89,60.32 73.29,60.07 73.68,59.81 74.08,59.56 74.48,59.31 74.88,59.08 75.27,58.87 75.67,58.68 76.07,58.51 76.46,58.38 76.86,58.25 77.26,58.1 77.65,57.93 78.05,57.78 78.45,57.64 78.84,57.55 79.24,57.48 79.64,57.4 80.03,57.31 80.43,57.21 80.83,57.11 81.23,57.01 81.62,56.91 82.02,56.83 82.42,56.74 82.81,56.66 83.21,56.58 83.61,56.52 84,56.46 84.4,56.4 84.8,56.34 85.19,56.28 85.59,56.22 85.99,56.16 86.38,56.11 86.78,56.07 87.18,56.03 87.58,55.99 87.97,55.96 88.37,55.92 88.77,55.9 89.16,55.86 89.56,55.82 89.96,55.77 90.35,55.71 90.75,55.66 91.15,55.63 91.54,55.62 91.94,55.6 92.34,55.58 92.73,55.54 93.13,55.5 93.53,55.46 93.93,55.42 94.32,55.4 94.72,55.37 95.12,55.35 95.51,55.32 95.91,55.29 96.31,55.27 96.7,55.26 97.1,55.24 97.5,55.22 97.89,55.19 98.29,55.17 98.69,55.16 99.08,55.15 99.48,55.13 99.88,55.13 100.28,55.12 100.67,55.1 101.07,55.06 101.47,55.02 101.86,55 102.26,54.99 102.66,54.99 103.05,54.98 103.45,54.96 103.85,54.94 104.24,54.93 104.64,54.92 105.04,54.9 105.43,54.89 105.83,54.87 106.23,54.85 106.63,54.83 107.02,54.82 107.42,54.82 107.82,54.81 108.21,54.8 108.61,54.78 109.01,54.78 109.4,54.77 109.8,54.76 110.2,54.75 110.59,54.74 110.99,54.72 111.39,54.71 111.78,54.7 112.18,54.7 112.58,54.7 112.98,54.7 113.37,54.69 113.77,54.68 114.17,54.66 114.56,54.65 114.96,54.63 115.36,54.62 115.75,54.61 116.15,54.61 116.55,54.61 116.94,54.6 117.34,54.59 117.74,54.57 118.13,54.56 118.53,54.55 118.93,54.55 119.33,54.55 119.72,54.55 120.12,54.55 120.52,54.55 120.91,54.54 121.31,54.54 121.71,54.52 122.1,54.51 122.5,54.51 122.9,54.51 123.29,54.52 123.69,54.51 124.09,54.5 124.48,54.48 124.88,54.47 125.28,54.46 125.68,54.46 126.07,54.45 126.47,54.45 126.87,54.45 127.26,54.45 127.66,54.44 128.06,54.43 128.45,54.42 128.85,54.42 129.25,54.42 129.64,54.42 130.04,54.41 130.44,54.4 130.83,54.39 131.23,54.39 131.63,54.39 132.03,54.39 132.42,54.4 132.82,54.4 133.22,54.39 133.61,54.38 134.01,54.38 134.41,54.37 134.8,54.36 135.2,54.35 135.6,54.34 135.99,54.33 136.39,54.33 136.79,54.32 137.18,54.32 137.58,54.32 137.98,54.33 138.38,54.33 138.77,54.32 139.17,54.32 139.57,54.32 139.96,54.33 140.36,54.33 140.76,54.32 141.15,54.31 141.55,54.31 141.95,54.3 142.34,54.3 142.74,54.29 143.14,54.29 143.53,54.28 143.93,54.28 144.33,54.28 144.73,54.27 145.12,54.26 145.52,54.26 145.92,54.26 146.31,54.26 146.71,54.26 147.11,54.26 147.5,54.25 147.9,54.25 148.3,54.24 148.69,54.25 149.09,54.25 149.49,54.25 149.88,54.25 150.28,54.25 150.68,54.25 151.08,54.24 151.47,54.24 151.87,54.24 152.27,54.23 152.66,54.23 153.06,54.23 153.46,54.23 153.85,54.23 154.25,54.23 154.65,54.22 155.04,54.22 155.44,54.21 155.84,54.21 156.23,54.21 156.63,54.2 157.03,54.2 157.43,54.21 157.82,54.21 158.22,54.21 158.62,54.21 159.01,54.2 159.41,54.21 159.81,54.21 160.2,54.2 160.6,54.2 161,54.19 161.39,54.19 161.79,54.19 162.19,54.19 162.58,54.19 162.98,54.19 163.38,54.19 163.78,54.19 164.17,54.19 164.57,54.18 164.97,54.18 165.36,54.18 165.76,54.17 166.16,54.17 166.55,54.16 166.95,54.16 167.35,54.16 167.74,54.16 168.14,54.16 168.54,54.16 168.93,54.16 169.33,54.16 169.73,54.16 170.13,54.16 170.52,54.15 170.92,54.15 171.32,54.15 171.71,54.16 172.11,54.16 172.51,54.16 172.9,54.16 173.3,54.15 173.7,54.15 174.09,54.15 174.49,54.15 174.89,54.14 175.28,54.14 175.68,54.14 176.08,54.15 176.48,54.14 176.87,54.14 177.27,54.13 177.67,54.13 178.06,54.13 178.46,54.13 178.86,54.13 179.25,54.13 179.65,54.13 180.05,54.13 180.44,54.14 180.84,54.13 181.24,54.13 181.63,54.13 182.03,54.13 182.43,54.13 182.83,54.13 183.22,54.13 183.62,54.12 184.02,54.12 184.41,54.12 184.81,54.12 185.21,54.12 185.6,54.12 186,54.12 186.4,54.11 186.79,54.11 187.19,54.11 187.59,54.11 187.98,54.11 188.38,54.11 188.78,54.11 189.18,54.11 189.57,54.1 189.97,54.1 190.37,54.1 190.76,54.11 191.16,54.1 191.56,54.1 191.95,54.1 192.35,54.1 192.75,54.1 193.14,54.1 193.54,54.1 193.94,54.1 194.33,54.1 194.73,54.1 195.13,54.1 195.53,54.09 195.92,54.09 196.32,54.09 196.72,54.09 197.11,54.09 197.51,54.09 197.91,54.09 198.3,54.09 198.7,54.09 199.1,54.09 199.49,54.09 199.89,54.09 200.29,54.09 200.68,54.09 201.08,54.09 201.48,54.09 201.88,54.09 202.27,54.09 202.67,54.09 203.07,54.09 203.46,54.08 203.86,54.08 204.26,54.08 204.65,54.08 205.05,54.08 205.45,54.08 205.84,54.08 206.24,54.08 206.64,54.08 207.03,54.09 207.43,54.08 207.83,54.08 208.23,54.08 208.62,54.07 209.02,54.07 209.42,54.08 209.81,54.08 210.21,54.08 210.61,54.08 211,54.08 211.4,54.08 211.8,54.07 212.19,54.07 212.59,54.06 212.99,54.07 213.38,54.07 213.78,54.07 214.18,54.07 214.58,54.07 214.97,54.07 215.37,54.07 215.77,54.06 216.16,54.06 216.56,54.06 216.96,54.06 217.35,54.07 217.75,54.06 218.15,54.06 218.54,54.06 218.94,54.06 219.34,54.06 219.73,54.06 220.13,54.05 220.53,54.05 220.93,54.05 221.32,54.06 221.72,54.06 222.12,54.05 222.51,54.05 222.91,54.05 223.31,54.06 223.7,54.06 224.1,54.05 224.5,54.05 224.89,54.05 225.29,54.05 225.69,54.05 226.08,54.05 226.48,54.05 226.88,54.05 227.28,54.05 227.67,54.06 228.07,54.06 228.47,54.06 228.86,54.05 229.26,54.05 229.66,54.05 230.05,54.04 230.45,54.05 230.85,54.05 231.24,54.05 231.64,54.05 232.04,54.05 232.43,54.05 232.83,54.05 233.23,54.05 233.63,54.05 234.02,54.05 234.42,54.05 234.82,54.05 235.21,54.05 235.61,54.05 236.01,54.05 236.4,54.05 236.8,54.05 237.2,54.04 237.59,54.04 237.99,54.04 238.39,54.04 238.78,54.04 239.18,54.04 239.58,54.04 239.98,54.04 240.37,54.04 240.77,54.04 241.17,54.04 241.56,54.04 241.96,54.04 242.36,54.04 242.75,54.04 243.15,54.04 243.55,54.03 243.94,54.03 244.34,54.03 244.74,54.04 245.13,54.04 245.53,54.04 245.93,54.04 246.33,54.04 246.72,54.04 247.12,54.04 247.52,54.04 247.91,54.04 248.31,54.04 248.71,54.04 249.1,54.03 249.5,54.03 249.9,54.03 250.29,54.03 250.69,54.03 251.09,54.03 251.48,54.03 251.88,54.03 252.28,54.03 252.68,54.03 253.07,54.03 253.47,54.03 253.87,54.03 254.26,54.03 254.66,54.03 255.06,54.03 255.45,54.03 255.85,54.03 256.25,54.03 256.64,54.03 257.04,54.03 257.44,54.04 257.83,54.04 258.23,54.04 258.63,54.03 259.03,54.03 259.42,54.02 259.82,54.01 260.22,54 260.61,53.98 261.01,53.97 261.41,53.97 261.8,53.97" stroke-dasharray="none" stroke="rgb(31,120,180)" stroke-width="0.75" opacity="1" stroke-opacity="1" fill="none"/>
          </g>
          <g id="Fig:densplot_01.xyplot.lines.group.4.panel.1.1.1">
            <polyline id="Fig:densplot_01.xyplot.lines.group.4.panel.1.1.1.1" points="59.24,54.05 59.64,54.93 60.03,60.15 60.43,77.48 60.82,108.68 61.22,134.43 61.62,135.15 62.01,120.73 62.41,107.35 62.8,98.52 63.2,92.5 63.6,87.92 63.99,84.19 64.39,81.07 64.78,78.44 65.18,76.22 65.57,74.33 65.97,72.66 66.37,71.13 66.76,69.71 67.16,68.4 67.55,67.22 67.95,66.24 68.35,65.44 68.74,64.72 69.14,64.02 69.53,63.31 69.93,62.7 70.32,62.2 70.72,61.75 71.12,61.33 71.51,60.93 71.91,60.59 72.3,60.3 72.7,60.06 73.1,59.83 73.49,59.58 73.89,59.31 74.28,59.04 74.68,58.81 75.07,58.63 75.47,58.46 75.87,58.28 76.26,58.1 76.66,57.95 77.05,57.81 77.45,57.67 77.85,57.54 78.24,57.42 78.64,57.32 79.03,57.21 79.43,57.1 79.82,56.99 80.22,56.89 80.62,56.8 81.01,56.72 81.41,56.66 81.8,56.6 82.2,56.51 82.59,56.42 82.99,56.34 83.39,56.26 83.78,56.21 84.18,56.16 84.57,56.12 84.97,56.07 85.37,56 85.76,55.95 86.16,55.9 86.55,55.87 86.95,55.84 87.34,55.78 87.74,55.73 88.14,55.69 88.53,55.65 88.93,55.62 89.32,55.59 89.72,55.56 90.12,55.52 90.51,55.47 90.91,55.44 91.3,55.4 91.7,55.37 92.09,55.35 92.49,55.33 92.89,55.31 93.28,55.31 93.68,55.29 94.07,55.27 94.47,55.23 94.87,55.2 95.26,55.17 95.66,55.13 96.05,55.11 96.45,55.09 96.84,55.08 97.24,55.06 97.64,55.03 98.03,55.01 98.43,54.99 98.82,54.97 99.22,54.96 99.62,54.95 100.01,54.94 100.41,54.92 100.8,54.9 101.2,54.88 101.59,54.87 101.99,54.86 102.39,54.85 102.78,54.83 103.18,54.82 103.57,54.81 103.97,54.79 104.36,54.78 104.76,54.77 105.16,54.76 105.55,54.75 105.95,54.73 106.34,54.72 106.74,54.72 107.14,54.7 107.53,54.68 107.93,54.66 108.32,54.65 108.72,54.65 109.11,54.65 109.51,54.63 109.91,54.62 110.3,54.62 110.7,54.62 111.09,54.61 111.49,54.6 111.89,54.58 112.28,54.57 112.68,54.56 113.07,54.55 113.47,54.55 113.86,54.55 114.26,54.55 114.66,54.53 115.05,54.52 115.45,54.52 115.84,54.51 116.24,54.5 116.64,54.49 117.03,54.48 117.43,54.47 117.82,54.47 118.22,54.46 118.61,54.46 119.01,54.45 119.41,54.45 119.8,54.45 120.2,54.45 120.59,54.45 120.99,54.44 121.38,54.42 121.78,54.41 122.18,54.4 122.57,54.39 122.97,54.38 123.36,54.38 123.76,54.37 124.16,54.37 124.55,54.38 124.95,54.39 125.34,54.39 125.74,54.38 126.13,54.37 126.53,54.37 126.93,54.36 127.32,54.35 127.72,54.34 128.11,54.33 128.51,54.32 128.91,54.32 129.3,54.32 129.7,54.31 130.09,54.31 130.49,54.32 130.88,54.32 131.28,54.32 131.68,54.32 132.07,54.31 132.47,54.3 132.86,54.29 133.26,54.29 133.66,54.3 134.05,54.29 134.45,54.29 134.84,54.28 135.24,54.27 135.63,54.26 136.03,54.26 136.43,54.27 136.82,54.27 137.22,54.26 137.61,54.26 138.01,54.26 138.41,54.26 138.8,54.26 139.2,54.26 139.59,54.25 139.99,54.24 140.38,54.24 140.78,54.24 141.18,54.23 141.57,54.23 141.97,54.23 142.36,54.23 142.76,54.24 143.15,54.24 143.55,54.23 143.95,54.22 144.34,54.21 144.74,54.21 145.13,54.21 145.53,54.22 145.93,54.22 146.32,54.21 146.72,54.21 147.11,54.2 147.51,54.2 147.9,54.2 148.3,54.2 148.7,54.2 149.09,54.2 149.49,54.19 149.88,54.19 150.28,54.18 150.68,54.18 151.07,54.18 151.47,54.18 151.86,54.18 152.26,54.18 152.65,54.17 153.05,54.17 153.45,54.16 153.84,54.16 154.24,54.16 154.63,54.16 155.03,54.17 155.43,54.17 155.82,54.16 156.22,54.16 156.61,54.15 157.01,54.15 157.4,54.14 157.8,54.14 158.2,54.14 158.59,54.14 158.99,54.15 159.38,54.15 159.78,54.15 160.18,54.15 160.57,54.14 160.97,54.14 161.36,54.14 161.76,54.13 162.15,54.13 162.55,54.14 162.95,54.14 163.34,54.14 163.74,54.14 164.13,54.13 164.53,54.13 164.92,54.13 165.32,54.13 165.72,54.14 166.11,54.14 166.51,54.13 166.9,54.13 167.3,54.12 167.7,54.12 168.09,54.12 168.49,54.12 168.88,54.13 169.28,54.13 169.67,54.13 170.07,54.12 170.47,54.12 170.86,54.12 171.26,54.11 171.65,54.11 172.05,54.11 172.45,54.11 172.84,54.11 173.24,54.11 173.63,54.11 174.03,54.1 174.42,54.1 174.82,54.1 175.22,54.1 175.61,54.1 176.01,54.1 176.4,54.1 176.8,54.1 177.2,54.1 177.59,54.1 177.99,54.1 178.38,54.1 178.78,54.09 179.17,54.09 179.57,54.09 179.97,54.09 180.36,54.1 180.76,54.11 181.15,54.1 181.55,54.1 181.94,54.1 182.34,54.1 182.74,54.1 183.13,54.09 183.53,54.09 183.92,54.09 184.32,54.09 184.72,54.09 185.11,54.09 185.51,54.09 185.9,54.09 186.3,54.09 186.69,54.09 187.09,54.08 187.49,54.08 187.88,54.07 188.28,54.07 188.67,54.07 189.07,54.07 189.47,54.07 189.86,54.07 190.26,54.07 190.65,54.08 191.05,54.08 191.44,54.08 191.84,54.08 192.24,54.07 192.63,54.07 193.03,54.07 193.42,54.07 193.82,54.07 194.22,54.07 194.61,54.08 195.01,54.08 195.4,54.08 195.8,54.07 196.19,54.07 196.59,54.07 196.99,54.08 197.38,54.08 197.78,54.08 198.17,54.07 198.57,54.07 198.97,54.07 199.36,54.06 199.76,54.06 200.15,54.06 200.55,54.06 200.94,54.06 201.34,54.06 201.74,54.06 202.13,54.05 202.53,54.05 202.92,54.05 203.32,54.05 203.71,54.05 204.11,54.05 204.51,54.05 204.9,54.05 205.3,54.05 205.69,54.05 206.09,54.05 206.49,54.05 206.88,54.05 207.28,54.05 207.67,54.05 208.07,54.05 208.46,54.05 208.86,54.05 209.26,54.05 209.65,54.05 210.05,54.05 210.44,54.05 210.84,54.05 211.24,54.06 211.63,54.06 212.03,54.06 212.42,54.05 212.82,54.05 213.21,54.04 213.61,54.04 214.01,54.04 214.4,54.04 214.8,54.04 215.19,54.05 215.59,54.05 215.99,54.05 216.38,54.05 216.78,54.04 217.17,54.04 217.57,54.04 217.96,54.04 218.36,54.04 218.76,54.05 219.15,54.05 219.55,54.05 219.94,54.05 220.34,54.04 220.73,54.04 221.13,54.04 221.53,54.04 221.92,54.04 222.32,54.04 222.71,54.04 223.11,54.04 223.51,54.03 223.9,54.03 224.3,54.03 224.69,54.03 225.09,54.03 225.48,54.03 225.88,54.03 226.28,54.03 226.67,54.04 227.07,54.04 227.46,54.04 227.86,54.04 228.26,54.04 228.65,54.04 229.05,54.03 229.44,54.03 229.84,54.04 230.23,54.04 230.63,54.04 231.03,54.04 231.42,54.04 231.82,54.03 232.21,54.03 232.61,54.03 233.01,54.03 233.4,54.03 233.8,54.03 234.19,54.02 234.59,54.02 234.98,54.02 235.38,54.02 235.78,54.03 236.17,54.03 236.57,54.03 236.96,54.03 237.36,54.03 237.76,54.03 238.15,54.03 238.55,54.03 238.94,54.03 239.34,54.02 239.73,54.02 240.13,54.02 240.53,54.02 240.92,54.02 241.32,54.02 241.71,54.02 242.11,54.02 242.5,54.02 242.9,54.02 243.3,54.02 243.69,54.02 244.09,54.02 244.48,54.02 244.88,54.02 245.28,54.02 245.67,54.02 246.07,54.02 246.46,54.02 246.86,54.02 247.25,54.02 247.65,54.02 248.05,54.02 248.44,54.01 248.84,54.01 249.23,54.02 249.63,54.02 250.03,54.01 250.42,54.01 250.82,54.01 251.21,54.02 251.61,54.02 252,54.02 252.4,54.02 252.8,54.02 253.19,54.02 253.59,54.02 253.98,54.02 254.38,54.02 254.78,54.02 255.17,54.02 255.57,54.02 255.96,54.01 256.36,54.01 256.75,54.01 257.15,54.01 257.55,54.01 257.94,54.01 258.34,54.01 258.73,54.01 259.13,54.01 259.53,54.02 259.92,54.01 260.32,53.99 260.71,53.98 261.11,53.97 261.5,53.97" stroke-dasharray="none" stroke="rgb(31,120,180)" stroke-width="0.75" opacity="1" stroke-opacity="1" fill="none"/>
          </g>
          <g id="Fig:densplot_01.xyplot.lines.group.5.panel.1.1.1">
            <polyline id="Fig:densplot_01.xyplot.lines.group.5.panel.1.1.1.1" points="59.86,54 60.25,59.21 60.65,109.93 61.04,212.48 61.43,190.61 61.83,148.89 62.22,123.93 62.61,108.98 63.01,98.95 63.4,91.36 63.79,85.74 64.19,81.35 64.58,77.78 64.97,74.88 65.37,72.51 65.76,70.61 66.15,69.02 66.55,67.53 66.94,66.11 67.33,64.96 67.73,63.89 68.12,63.03 68.51,62.42 68.91,61.69 69.3,61.13 69.69,60.61 70.09,60.14 70.48,59.74 70.87,59.37 71.27,59.07 71.66,58.8 72.05,58.52 72.45,58.31 72.84,58.06 73.23,57.85 73.63,57.67 74.02,57.41 74.41,57.22 74.81,57.03 75.2,56.89 75.59,56.8 75.99,56.68 76.38,56.57 76.77,56.44 77.17,56.32 77.56,56.21 77.95,56.12 78.35,56 78.74,55.94 79.13,55.89 79.53,55.85 79.92,55.81 80.31,55.75 80.7,55.65 81.1,55.58 81.49,55.55 81.88,55.49 82.28,55.42 82.67,55.37 83.06,55.33 83.46,55.29 83.85,55.27 84.24,55.24 84.64,55.2 85.03,55.17 85.42,55.13 85.82,55.07 86.21,55.02 86.6,54.99 87,54.95 87.39,54.93 87.78,54.93 88.18,54.93 88.57,54.89 88.96,54.85 89.36,54.84 89.75,54.82 90.14,54.77 90.54,54.76 90.93,54.74 91.32,54.71 91.72,54.7 92.11,54.68 92.5,54.67 92.9,54.66 93.29,54.63 93.68,54.6 94.08,54.61 94.47,54.63 94.86,54.61 95.26,54.57 95.65,54.54 96.04,54.53 96.44,54.51 96.83,54.49 97.22,54.48 97.62,54.45 98.01,54.45 98.4,54.46 98.8,54.46 99.19,54.44 99.58,54.43 99.98,54.43 100.37,54.42 100.76,54.42 101.16,54.41 101.55,54.39 101.94,54.37 102.34,54.38 102.73,54.38 103.12,54.38 103.52,54.4 103.91,54.39 104.3,54.36 104.69,54.33 105.09,54.31 105.48,54.31 105.87,54.3 106.27,54.32 106.66,54.32 107.05,54.28 107.45,54.3 107.84,54.29 108.23,54.28 108.63,54.27 109.02,54.3 109.41,54.29 109.81,54.29 110.2,54.28 110.59,54.25 110.99,54.24 111.38,54.24 111.77,54.23 112.17,54.23 112.56,54.25 112.95,54.26 113.35,54.23 113.74,54.23 114.13,54.22 114.53,54.22 114.92,54.21 115.31,54.21 115.71,54.21 116.1,54.21 116.49,54.2 116.89,54.2 117.28,54.2 117.67,54.18 118.07,54.17 118.46,54.18 118.85,54.18 119.25,54.18 119.64,54.19 120.03,54.18 120.43,54.17 120.82,54.17 121.21,54.17 121.61,54.16 122,54.16 122.39,54.15 122.79,54.16 123.18,54.16 123.57,54.16 123.97,54.15 124.36,54.15 124.75,54.14 125.15,54.15 125.54,54.15 125.93,54.15 126.33,54.14 126.72,54.14 127.11,54.14 127.51,54.13 127.9,54.13 128.29,54.12 128.68,54.12 129.08,54.13 129.47,54.13 129.86,54.13 130.26,54.12 130.65,54.12 131.04,54.12 131.44,54.12 131.83,54.12 132.22,54.11 132.62,54.11 133.01,54.11 133.4,54.11 133.8,54.11 134.19,54.1 134.58,54.1 134.98,54.09 135.37,54.1 135.76,54.11 136.16,54.1 136.55,54.09 136.94,54.09 137.34,54.09 137.73,54.09 138.12,54.09 138.52,54.09 138.91,54.09 139.3,54.09 139.7,54.09 140.09,54.08 140.48,54.08 140.88,54.08 141.27,54.08 141.66,54.08 142.06,54.1 142.45,54.1 142.84,54.08 143.24,54.08 143.63,54.07 144.02,54.07 144.42,54.08 144.81,54.07 145.2,54.06 145.6,54.06 145.99,54.06 146.38,54.07 146.78,54.06 147.17,54.05 147.56,54.05 147.96,54.06 148.35,54.06 148.74,54.06 149.14,54.06 149.53,54.06 149.92,54.05 150.32,54.05 150.71,54.06 151.1,54.06 151.5,54.05 151.89,54.05 152.28,54.04 152.67,54.04 153.07,54.06 153.46,54.06 153.85,54.06 154.25,54.05 154.64,54.05 155.03,54.05 155.43,54.05 155.82,54.05 156.21,54.04 156.61,54.05 157,54.05 157.39,54.04 157.79,54.04 158.18,54.03 158.57,54.03 158.97,54.04 159.36,54.04 159.75,54.04 160.15,54.03 160.54,54.03 160.93,54.03 161.33,54.04 161.72,54.03 162.11,54.03 162.51,54.03 162.9,54.03 163.29,54.02 163.69,54.04 164.08,54.04 164.47,54.03 164.87,54.03 165.26,54.03 165.65,54.03 166.05,54.02 166.44,54.03 166.83,54.04 167.23,54.04 167.62,54.03 168.01,54.02 168.41,54.02 168.8,54.02 169.19,54.03 169.59,54.02 169.98,54.02 170.37,54.02 170.77,54.03 171.16,54.03 171.55,54.03 171.95,54.03 172.34,54.02 172.73,54.02 173.13,54.03 173.52,54.03 173.91,54.03 174.31,54.03 174.7,54.02 175.09,54.02 175.49,54.02 175.88,54.02 176.27,54.02 176.66,54.02 177.06,54.02 177.45,54.02 177.84,54.01 178.24,54.01 178.63,54.01 179.02,54.02 179.42,54.02 179.81,54.02 180.2,54.03 180.6,54.03 180.99,54.02 181.38,54.02 181.78,54.02 182.17,54.02 182.56,54.01 182.96,54.01 183.35,54.01 183.74,54.01 184.14,54.01 184.53,54.02 184.92,54.02 185.32,54.01 185.71,54.01 186.1,54 186.5,54.01 186.89,54.01 187.28,54.02 187.68,54.01 188.07,54.02 188.46,54.02 188.86,54.01 189.25,54.01 189.64,54.01 190.04,54.01 190.43,54.01 190.82,54.01 191.22,54 191.61,54 192,54 192.4,54 192.79,54.01 193.18,54.01 193.58,54 193.97,54 194.36,54.01 194.76,54.01 195.15,54.01 195.54,54 195.94,54 196.33,54 196.72,54 197.12,54 197.51,54 197.9,54 198.3,54 198.69,54 199.08,54.01 199.48,54.01 199.87,54.01 200.26,54.01 200.66,54 201.05,54 201.44,54 201.83,53.99 202.23,54 202.62,54 203.01,54 203.41,54 203.8,54 204.19,54 204.59,54 204.98,54 205.37,54 205.77,54 206.16,54 206.55,54 206.95,54 207.34,54 207.73,54 208.13,54 208.52,54 208.91,54 209.31,54 209.7,54 210.09,54 210.49,53.99 210.88,54 211.27,54 211.67,54 212.06,54 212.45,53.99 212.85,53.99 213.24,53.99 213.63,54 214.03,54 214.42,54 214.81,53.99 215.21,54 215.6,54 215.99,53.99 216.39,53.99 216.78,53.99 217.17,53.99 217.57,53.99 217.96,53.99 218.35,53.99 218.75,53.99 219.14,53.99 219.53,53.99 219.93,53.99 220.32,53.99 220.71,53.99 221.11,53.99 221.5,53.99 221.89,54 222.29,54 222.68,54 223.07,53.99 223.47,53.99 223.86,53.99 224.25,53.99 224.65,53.99 225.04,53.99 225.43,53.99 225.82,53.99 226.22,53.99 226.61,53.99 227,53.99 227.4,53.99 227.79,53.99 228.18,53.99 228.58,53.99 228.97,53.99 229.36,53.99 229.76,53.99 230.15,53.99 230.54,53.99 230.94,53.99 231.33,54 231.72,54 232.12,53.99 232.51,53.99 232.9,53.99 233.3,53.99 233.69,53.99 234.08,53.99 234.48,53.99 234.87,53.99 235.26,53.99 235.66,53.99 236.05,53.99 236.44,53.99 236.84,53.99 237.23,53.99 237.62,53.98 238.02,53.99 238.41,53.99 238.8,53.99 239.2,53.99 239.59,53.98 239.98,53.98 240.38,53.98 240.77,53.99 241.16,53.99 241.56,53.98 241.95,53.98 242.34,53.98 242.74,53.98 243.13,53.99 243.52,53.99 243.92,53.99 244.31,53.99 244.7,53.99 245.1,53.99 245.49,53.99 245.88,53.99 246.28,53.99 246.67,53.99 247.06,53.98 247.46,53.99 247.85,53.99 248.24,53.99 248.64,53.99 249.03,53.99 249.42,53.99 249.81,53.99 250.21,53.99 250.6,53.99 250.99,53.99 251.39,53.99 251.78,53.99 252.17,53.99 252.57,53.99 252.96,53.99 253.35,53.99 253.75,53.99 254.14,53.99 254.53,53.98 254.93,53.99 255.32,53.99 255.71,53.99 256.11,53.99 256.5,53.98 256.89,53.98 257.29,53.98 257.68,53.99 258.07,53.99 258.47,53.99 258.86,53.98 259.25,53.98 259.65,53.99 260.04,53.98 260.43,53.97 260.83,53.97" stroke-dasharray="none" stroke="rgb(31,120,180)" stroke-width="0.75" opacity="1" stroke-opacity="1" fill="none"/>
          </g>
        </g>
        <g id="Fig:densplot_01.panel.1.1.off.vp.2">
          <g id="Fig:densplot_01.border.panel.1.1.1">
            <rect id="Fig:densplot_01.border.panel.1.1.1.1" x="44.8" y="42.19" width="231.2" height="191.81" transform="" stroke="rgb(0,0,0)" stroke-dasharray="none" stroke-width="0.75" opacity="1" fill="none" stroke-opacity="1" fill-opacity="0"/>
          </g>
        </g>
        <g id="Fig:densplot_01..1"/>
      </g>
    </g>
  </g>
</svg>